<svg width="75" height="48" viewBox="0 0 75 48" fill="none" xmlns="http://www.w3.org/2000/svg">
<g filter="url(#filter0_d_5840_468073)">
<path d="M8.25 21.6842C8.25 14.1266 14.3766 8 21.9342 8H53.0658C60.6234 8 66.75 14.1266 66.75 21.6842C66.75 29.2418 60.6234 35.3684 53.0658 35.3684H21.9342C14.3766 35.3684 8.25 29.2418 8.25 21.6842Z" fill="#0073EA"/>
</g>
<g clip-path="url(#clip0_5840_468073)">
<path d="M31.411 26.3418V16.5418H32.587V26.3418H31.411ZM24.677 26.3418V16.5418H25.867V26.3418H24.677ZM25.727 21.8338V20.7558H31.663V21.8338H25.727ZM37.9347 26.5098C37.2533 26.5098 36.6513 26.3558 36.1287 26.0478C35.606 25.7305 35.1953 25.2965 34.8967 24.7458C34.6073 24.1951 34.4627 23.5605 34.4627 22.8418C34.4627 22.1231 34.6073 21.4885 34.8967 20.9378C35.1953 20.3871 35.6013 19.9578 36.1147 19.6498C36.6373 19.3325 37.2347 19.1738 37.9067 19.1738C38.5507 19.1738 39.1107 19.3371 39.5867 19.6638C40.072 19.9811 40.4453 20.4291 40.7067 21.0078C40.968 21.5865 41.0987 22.2678 41.0987 23.0518H39.9787C39.9787 22.4545 39.8993 21.9458 39.7407 21.5258C39.582 21.0965 39.344 20.7651 39.0267 20.5318C38.7187 20.2985 38.3407 20.1818 37.8927 20.1818C37.4353 20.1818 37.0293 20.2938 36.6747 20.5178C36.3293 20.7325 36.0633 21.0405 35.8767 21.4418C35.69 21.8431 35.5967 22.3145 35.5967 22.8558C35.5967 23.3878 35.6993 23.8498 35.9047 24.2418C36.11 24.6245 36.3947 24.9278 36.7587 25.1518C37.1227 25.3665 37.5333 25.4738 37.9907 25.4738C38.476 25.4738 38.8867 25.3571 39.2227 25.1238C39.5587 24.8905 39.8247 24.5871 40.0207 24.2138L41.0007 24.7038C40.8233 25.0678 40.5853 25.3851 40.2867 25.6558C39.9973 25.9265 39.652 26.1365 39.2507 26.2858C38.8587 26.4351 38.42 26.5098 37.9347 26.5098ZM35.2047 23.0518L35.2187 22.0858H40.4127V23.0518H35.2047ZM42.5113 26.3418V16.5418H43.6313V26.3418H42.5113ZM45.6574 29.1418V19.3418H46.7074L46.7774 20.6298V29.1418H45.6574ZM49.1434 26.5098C48.5554 26.5098 48.0374 26.3558 47.5894 26.0478C47.1508 25.7398 46.8101 25.3105 46.5674 24.7598C46.3248 24.1998 46.2034 23.5605 46.2034 22.8418C46.2034 22.1138 46.3248 21.4745 46.5674 20.9238C46.8101 20.3731 47.1508 19.9438 47.5894 19.6358C48.0374 19.3278 48.5554 19.1738 49.1434 19.1738C49.7688 19.1738 50.3194 19.3278 50.7954 19.6358C51.2714 19.9438 51.6401 20.3731 51.9014 20.9238C52.1721 21.4745 52.3074 22.1138 52.3074 22.8418C52.3074 23.5605 52.1721 24.1998 51.9014 24.7598C51.6401 25.3105 51.2714 25.7398 50.7954 26.0478C50.3194 26.3558 49.7688 26.5098 49.1434 26.5098ZM48.8914 25.4878C49.3301 25.4878 49.7174 25.3758 50.0534 25.1518C50.3988 24.9278 50.6694 24.6151 50.8654 24.2138C51.0708 23.8125 51.1734 23.3551 51.1734 22.8418C51.1734 22.3285 51.0754 21.8711 50.8794 21.4698C50.6928 21.0685 50.4268 20.7558 50.0814 20.5318C49.7361 20.3078 49.3441 20.1958 48.9054 20.1958C48.4948 20.1958 48.1261 20.3078 47.7994 20.5318C47.4821 20.7558 47.2301 21.0685 47.0434 21.4698C46.8661 21.8711 46.7774 22.3285 46.7774 22.8418C46.7774 23.3551 46.8661 23.8125 47.0434 24.2138C47.2301 24.6151 47.4821 24.9278 47.7994 25.1518C48.1168 25.3758 48.4808 25.4878 48.8914 25.4878Z" fill="white"/>
</g>
<g filter="url(#filter1_d_5840_468073)">
<circle cx="60.375" cy="10" r="9.375" fill="#00CC6F"/>
</g>
<path fill-rule="evenodd" clip-rule="evenodd" d="M60.3751 4.33203C60.665 4.33203 60.9001 4.55029 60.9001 4.81953V5.34641C61.8133 5.44238 62.67 5.82272 63.3262 6.43206C64.0914 7.14257 64.5212 8.10622 64.5212 9.11104C64.5212 10.6309 64.6959 11.4852 64.8521 11.9422C64.9298 12.1694 65.0012 12.2935 65.0402 12.351C65.0534 12.3705 65.0629 12.3823 65.0677 12.3878C65.2175 12.5191 65.2717 12.7213 65.2025 12.904C65.1286 13.0992 64.93 13.2298 64.7072 13.2298H62.4421C62.4411 13.272 62.4343 13.3147 62.4209 13.3572C62.2957 13.7537 62.0358 14.1021 61.6798 14.35C61.3238 14.598 60.891 14.732 60.446 14.732C60.0011 14.732 59.5682 14.598 59.2123 14.35C58.8563 14.1021 58.5964 13.7537 58.4712 13.3572C58.4578 13.3147 58.4509 13.272 58.45 13.2298H56.175C55.9742 13.2298 55.791 13.1234 55.703 12.9558C55.6168 12.7913 55.637 12.5961 55.7548 12.4501C55.756 12.4485 55.7584 12.4451 55.762 12.4398C55.7722 12.4248 55.7916 12.3948 55.8174 12.3473C55.869 12.2524 55.9465 12.0874 56.027 11.8342C56.1881 11.3274 56.361 10.4671 56.361 9.11104C56.361 8.10622 56.7909 7.14257 57.5561 6.43206C58.1805 5.85221 58.9865 5.47973 59.8501 5.36234V4.81953C59.8501 4.55029 60.0851 4.33203 60.3751 4.33203ZM59.54 13.2298C59.6099 13.3634 59.7133 13.4802 59.8423 13.57C60.0166 13.6915 60.2285 13.757 60.446 13.757C60.6636 13.757 60.8755 13.6915 61.0498 13.57C61.1788 13.4802 61.2822 13.3634 61.3521 13.2298H59.54ZM58.2985 7.12148C58.8668 6.59382 59.6375 6.29738 60.4411 6.29738C61.2448 6.29738 62.0155 6.59382 62.5837 7.12148C63.152 7.64915 63.4712 8.36481 63.4712 9.11104C63.4712 10.6925 63.652 11.6539 63.8513 12.2371L63.8574 12.2548H56.9857C57.0019 12.2089 57.018 12.1607 57.0341 12.1101C57.2285 11.4983 57.411 10.5429 57.411 9.11104C57.411 8.36481 57.7303 7.64915 58.2985 7.12148Z" fill="white"/>
<defs>
<filter id="filter0_d_5840_468073" x="0.25" y="4" width="74.5" height="43.3682" filterUnits="userSpaceOnUse" color-interpolation-filters="sRGB">
<feFlood flood-opacity="0" result="BackgroundImageFix"/>
<feColorMatrix in="SourceAlpha" type="matrix" values="0 0 0 0 0 0 0 0 0 0 0 0 0 0 0 0 0 0 127 0" result="hardAlpha"/>
<feOffset dy="4"/>
<feGaussianBlur stdDeviation="4"/>
<feColorMatrix type="matrix" values="0 0 0 0 0 0 0 0 0 0 0 0 0 0 0 0 0 0 0.200691 0"/>
<feBlend mode="normal" in2="BackgroundImageFix" result="effect1_dropShadow_5840_468073"/>
<feBlend mode="normal" in="SourceGraphic" in2="effect1_dropShadow_5840_468073" result="shape"/>
</filter>
<filter id="filter1_d_5840_468073" x="49" y="0.625" width="22.75" height="24.75" filterUnits="userSpaceOnUse" color-interpolation-filters="sRGB">
<feFlood flood-opacity="0" result="BackgroundImageFix"/>
<feColorMatrix in="SourceAlpha" type="matrix" values="0 0 0 0 0 0 0 0 0 0 0 0 0 0 0 0 0 0 127 0" result="hardAlpha"/>
<feMorphology radius="4" operator="erode" in="SourceAlpha" result="effect1_dropShadow_5840_468073"/>
<feOffset dy="4"/>
<feGaussianBlur stdDeviation="3"/>
<feColorMatrix type="matrix" values="0 0 0 0 0 0 0 0 0 0 0 0 0 0 0 0 0 0 0.1 0"/>
<feBlend mode="normal" in2="BackgroundImageFix" result="effect1_dropShadow_5840_468073"/>
<feBlend mode="normal" in="SourceGraphic" in2="effect1_dropShadow_5840_468073" result="shape"/>
</filter>
<clipPath id="clip0_5840_468073">
<rect width="30" height="18.77" fill="white" transform="translate(23.375 12.2988)"/>
</clipPath>
</defs>
</svg>
