<svg width="75" height="44" viewBox="0 0 75 44" fill="none" xmlns="http://www.w3.org/2000/svg">
<g filter="url(#filter0_d_5840_468074)">
<path d="M8 17.6842C8 10.1266 14.1266 4 21.6842 4H52.8158C60.3734 4 66.5 10.1266 66.5 17.6842C66.5 25.2418 60.3734 31.3684 52.8158 31.3684H21.6842C14.1266 31.3684 8 25.2418 8 17.6842Z" fill="#0073EA"/>
</g>
<g clip-path="url(#clip0_5840_468074)">
<path d="M31.161 22.3418V12.5418H32.337V22.3418H31.161ZM24.427 22.3418V12.5418H25.617V22.3418H24.427ZM25.477 17.8338V16.7558H31.413V17.8338H25.477ZM37.6847 22.5098C37.0033 22.5098 36.4013 22.3558 35.8787 22.0478C35.356 21.7305 34.9453 21.2965 34.6467 20.7458C34.3573 20.1951 34.2127 19.5605 34.2127 18.8418C34.2127 18.1231 34.3573 17.4885 34.6467 16.9378C34.9453 16.3871 35.3513 15.9578 35.8647 15.6498C36.3873 15.3325 36.9847 15.1738 37.6567 15.1738C38.3007 15.1738 38.8607 15.3371 39.3367 15.6638C39.822 15.9811 40.1953 16.4291 40.4567 17.0078C40.718 17.5865 40.8487 18.2678 40.8487 19.0518H39.7287C39.7287 18.4545 39.6493 17.9458 39.4907 17.5258C39.332 17.0965 39.094 16.7651 38.7767 16.5318C38.4687 16.2985 38.0907 16.1818 37.6427 16.1818C37.1853 16.1818 36.7793 16.2938 36.4247 16.5178C36.0793 16.7325 35.8133 17.0405 35.6267 17.4418C35.44 17.8431 35.3467 18.3145 35.3467 18.8558C35.3467 19.3878 35.4493 19.8498 35.6547 20.2418C35.86 20.6245 36.1447 20.9278 36.5087 21.1518C36.8727 21.3665 37.2833 21.4738 37.7407 21.4738C38.226 21.4738 38.6367 21.3571 38.9727 21.1238C39.3087 20.8905 39.5747 20.5871 39.7707 20.2138L40.7507 20.7038C40.5733 21.0678 40.3353 21.3851 40.0367 21.6558C39.7473 21.9265 39.402 22.1365 39.0007 22.2858C38.6087 22.4351 38.17 22.5098 37.6847 22.5098ZM34.9547 19.0518L34.9687 18.0858H40.1627V19.0518H34.9547ZM42.2613 22.3418V12.5418H43.3813V22.3418H42.2613ZM45.4074 25.1418V15.3418H46.4574L46.5274 16.6298V25.1418H45.4074ZM48.8934 22.5098C48.3054 22.5098 47.7874 22.3558 47.3394 22.0478C46.9008 21.7398 46.5601 21.3105 46.3174 20.7598C46.0748 20.1998 45.9534 19.5605 45.9534 18.8418C45.9534 18.1138 46.0748 17.4745 46.3174 16.9238C46.5601 16.3731 46.9008 15.9438 47.3394 15.6358C47.7874 15.3278 48.3054 15.1738 48.8934 15.1738C49.5188 15.1738 50.0694 15.3278 50.5454 15.6358C51.0214 15.9438 51.3901 16.3731 51.6514 16.9238C51.9221 17.4745 52.0574 18.1138 52.0574 18.8418C52.0574 19.5605 51.9221 20.1998 51.6514 20.7598C51.3901 21.3105 51.0214 21.7398 50.5454 22.0478C50.0694 22.3558 49.5188 22.5098 48.8934 22.5098ZM48.6414 21.4878C49.0801 21.4878 49.4674 21.3758 49.8034 21.1518C50.1488 20.9278 50.4194 20.6151 50.6154 20.2138C50.8208 19.8125 50.9234 19.3551 50.9234 18.8418C50.9234 18.3285 50.8254 17.8711 50.6294 17.4698C50.4428 17.0685 50.1768 16.7558 49.8314 16.5318C49.4861 16.3078 49.0941 16.1958 48.6554 16.1958C48.2448 16.1958 47.8761 16.3078 47.5494 16.5318C47.2321 16.7558 46.9801 17.0685 46.7934 17.4698C46.6161 17.8711 46.5274 18.3285 46.5274 18.8418C46.5274 19.3551 46.6161 19.8125 46.7934 20.2138C46.9801 20.6151 47.2321 20.9278 47.5494 21.1518C47.8668 21.3758 48.2308 21.4878 48.6414 21.4878Z" fill="white"/>
</g>
<defs>
<filter id="filter0_d_5840_468074" x="0" y="0" width="74.5" height="43.3682" filterUnits="userSpaceOnUse" color-interpolation-filters="sRGB">
<feFlood flood-opacity="0" result="BackgroundImageFix"/>
<feColorMatrix in="SourceAlpha" type="matrix" values="0 0 0 0 0 0 0 0 0 0 0 0 0 0 0 0 0 0 127 0" result="hardAlpha"/>
<feOffset dy="4"/>
<feGaussianBlur stdDeviation="4"/>
<feColorMatrix type="matrix" values="0 0 0 0 0 0 0 0 0 0 0 0 0 0 0 0 0 0 0.200691 0"/>
<feBlend mode="normal" in2="BackgroundImageFix" result="effect1_dropShadow_5840_468074"/>
<feBlend mode="normal" in="SourceGraphic" in2="effect1_dropShadow_5840_468074" result="shape"/>
</filter>
<clipPath id="clip0_5840_468074">
<rect width="30" height="18.77" fill="white" transform="translate(23.125 8.29883)"/>
</clipPath>
</defs>
</svg>
